<svg width="64" height="64" viewBox="0 0 64 64" fill="none" xmlns="http://www.w3.org/2000/svg">
  <!-- 黑色聊天气泡 -->
  <path d="M12 16C12 12.6863 14.6863 10 18 10H38C41.3137 10 44 12.6863 44 16V28C44 31.3137 41.3137 34 38 34H26L18 42V34C14.6863 34 12 31.3137 12 28V16Z" fill="#000000"/>
  
  <!-- T字母形状 (白色) -->
  <rect x="18" y="16" width="20" height="4" fill="white"/>
  <rect x="26" y="16" width="4" height="14" fill="white"/>
  
  <!-- 箭头 -->
  <path d="M46 12L52 6M52 6L58 12M52 6V18" stroke="#000000" stroke-width="2" stroke-linecap="round" stroke-linejoin="round"/>
  
  <!-- 白色聊天气泡轮廓 -->
  <path d="M20 26C20 22.6863 22.6863 20 26 20H46C49.3137 20 52 22.6863 52 26V38C52 41.3137 49.3137 44 46 44H34L26 52V44C22.6863 44 20 41.3137 20 38V26Z" stroke="#000000" stroke-width="2" fill="none"/>
</svg>